<?xml version="1.0" encoding="UTF-8" standalone="no"?>
<!DOCTYPE svg PUBLIC "-//W3C//DTD SVG 1.1//EN"
 "http://www.w3.org/Graphics/SVG/1.1/DTD/svg11.dtd">
<!-- Generated by graphviz version 2.38.0 (20140413.2041)
 -->
<!-- Title: packages Pages: 1 -->
<svg width="2780pt" height="404pt"
 viewBox="0.00 0.00 2779.50 404.00" xmlns="http://www.w3.org/2000/svg" xmlns:xlink="http://www.w3.org/1999/xlink">
<g id="graph0" class="graph" transform="scale(1 1) rotate(0) translate(4 400)">
<title>packages</title>
<polygon fill="white" stroke="none" points="-4,4 -4,-400 2775.5,-400 2775.5,4 -4,4"/>
<!-- 0 -->
<g id="node1" class="node"><title>0</title>
<path fill="none" stroke="black" d="M1077,-36C1077,-36 1021,-36 1021,-36 1015,-36 1009,-30 1009,-24 1009,-24 1009,-12 1009,-12 1009,-6 1015,-0 1021,-0 1021,-0 1077,-0 1077,-0 1083,-0 1089,-6 1089,-12 1089,-12 1089,-24 1089,-24 1089,-30 1083,-36 1077,-36"/>
<text text-anchor="middle" x="1049" y="-14.3" font-family="Times,serif" font-size="14.00">serverlib</text>
</g>
<!-- 1 -->
<g id="node2" class="node"><title>1</title>
<path fill="none" stroke="black" d="M655.5,-180C655.5,-180 512.5,-180 512.5,-180 506.5,-180 500.5,-174 500.5,-168 500.5,-168 500.5,-156 500.5,-156 500.5,-150 506.5,-144 512.5,-144 512.5,-144 655.5,-144 655.5,-144 661.5,-144 667.5,-150 667.5,-156 667.5,-156 667.5,-168 667.5,-168 667.5,-174 661.5,-180 655.5,-180"/>
<text text-anchor="middle" x="584" y="-158.3" font-family="Times,serif" font-size="14.00">serverlib.ChemStock</text>
</g>
<!-- 9 -->
<g id="node10" class="node"><title>9</title>
<path fill="none" stroke="black" d="M1317,-324C1317,-324 1181,-324 1181,-324 1175,-324 1169,-318 1169,-312 1169,-312 1169,-300 1169,-300 1169,-294 1175,-288 1181,-288 1181,-288 1317,-288 1317,-288 1323,-288 1329,-294 1329,-300 1329,-300 1329,-312 1329,-312 1329,-318 1323,-324 1317,-324"/>
<text text-anchor="middle" x="1249" y="-302.3" font-family="Times,serif" font-size="14.00">serverlib.qai_helper</text>
</g>
<!-- 1&#45;&gt;9 -->
<g id="edge1" class="edge"><title>1&#45;&gt;9</title>
<path fill="none" stroke="black" d="M667.758,-165.158C729.597,-169.709 814.254,-182.306 881,-216 901.768,-226.484 898.142,-241.697 919,-252 960.015,-272.26 1075.69,-287.669 1158.5,-296.516"/>
<polygon fill="black" stroke="black" points="1168.68,-297.589 1158.27,-301.017 1163.71,-297.065 1158.74,-296.541 1158.74,-296.541 1158.74,-296.541 1163.71,-297.065 1159.21,-292.066 1168.68,-297.589 1168.68,-297.589"/>
</g>
<!-- 10 -->
<g id="node11" class="node"><title>10</title>
<path fill="none" stroke="black" d="M548,-252C548,-252 398,-252 398,-252 392,-252 386,-246 386,-240 386,-240 386,-228 386,-228 386,-222 392,-216 398,-216 398,-216 548,-216 548,-216 554,-216 560,-222 560,-228 560,-228 560,-240 560,-240 560,-246 554,-252 548,-252"/>
<text text-anchor="middle" x="473" y="-230.3" font-family="Times,serif" font-size="14.00">serverlib.serverconfig</text>
</g>
<!-- 1&#45;&gt;10 -->
<g id="edge2" class="edge"><title>1&#45;&gt;10</title>
<path fill="none" stroke="black" d="M556.846,-180.124C542.467,-189.192 524.619,-200.448 509.09,-210.241"/>
<polygon fill="black" stroke="black" points="500.258,-215.81 506.316,-206.67 504.487,-213.143 508.717,-210.476 508.717,-210.476 508.717,-210.476 504.487,-213.143 511.117,-214.282 500.258,-215.81 500.258,-215.81"/>
</g>
<!-- 25 -->
<g id="node26" class="node"><title>25</title>
<path fill="none" stroke="black" d="M545.5,-396C545.5,-396 434.5,-396 434.5,-396 428.5,-396 422.5,-390 422.5,-384 422.5,-384 422.5,-372 422.5,-372 422.5,-366 428.5,-360 434.5,-360 434.5,-360 545.5,-360 545.5,-360 551.5,-360 557.5,-366 557.5,-372 557.5,-372 557.5,-384 557.5,-384 557.5,-390 551.5,-396 545.5,-396"/>
<text text-anchor="middle" x="490" y="-374.3" font-family="Times,serif" font-size="14.00">serverlib.timelib</text>
</g>
<!-- 1&#45;&gt;25 -->
<g id="edge3" class="edge"><title>1&#45;&gt;25</title>
<path fill="none" stroke="black" d="M500.241,-170.651C362.281,-183.45 101.702,-208.533 95,-216 -0.303501,-322.191 271.613,-359.736 411.962,-371.813"/>
<polygon fill="black" stroke="black" points="422.243,-372.672 411.903,-376.324 417.261,-372.256 412.278,-371.839 412.278,-371.839 412.278,-371.839 417.261,-372.256 412.653,-367.355 422.243,-372.672 422.243,-372.672"/>
</g>
<!-- 26 -->
<g id="node27" class="node"><title>26</title>
<path fill="none" stroke="black" d="M647.5,-324C647.5,-324 528.5,-324 528.5,-324 522.5,-324 516.5,-318 516.5,-312 516.5,-312 516.5,-300 516.5,-300 516.5,-294 522.5,-288 528.5,-288 528.5,-288 647.5,-288 647.5,-288 653.5,-288 659.5,-294 659.5,-300 659.5,-300 659.5,-312 659.5,-312 659.5,-318 653.5,-324 647.5,-324"/>
<text text-anchor="middle" x="588" y="-302.3" font-family="Times,serif" font-size="14.00">serverlib.yamlutil</text>
</g>
<!-- 1&#45;&gt;26 -->
<g id="edge4" class="edge"><title>1&#45;&gt;26</title>
<path fill="none" stroke="black" d="M584.482,-180.129C585.164,-204.33 586.417,-248.789 587.228,-277.607"/>
<polygon fill="black" stroke="black" points="587.516,-287.811 582.736,-277.941 587.375,-282.813 587.234,-277.815 587.234,-277.815 587.234,-277.815 587.375,-282.813 591.732,-277.688 587.516,-287.811 587.516,-287.811"/>
</g>
<!-- 2 -->
<g id="node3" class="node"><title>2</title>
<path fill="none" stroke="black" d="M1660.5,-324C1660.5,-324 1495.5,-324 1495.5,-324 1489.5,-324 1483.5,-318 1483.5,-312 1483.5,-312 1483.5,-300 1483.5,-300 1483.5,-294 1489.5,-288 1495.5,-288 1495.5,-288 1660.5,-288 1660.5,-288 1666.5,-288 1672.5,-294 1672.5,-300 1672.5,-300 1672.5,-312 1672.5,-312 1672.5,-318 1666.5,-324 1660.5,-324"/>
<text text-anchor="middle" x="1578" y="-302.3" font-family="Times,serif" font-size="14.00">serverlib.LocChangeLib</text>
</g>
<!-- 2&#45;&gt;25 -->
<g id="edge5" class="edge"><title>2&#45;&gt;25</title>
<path fill="none" stroke="black" d="M1483.4,-313.882C1439.23,-317.05 1385.93,-320.805 1338,-324 1054.2,-342.919 716.838,-363.406 567.601,-372.366"/>
<polygon fill="black" stroke="black" points="557.615,-372.965 567.327,-367.874 562.606,-372.666 567.597,-372.366 567.597,-372.366 567.597,-372.366 562.606,-372.666 567.867,-376.858 557.615,-372.965 557.615,-372.965"/>
</g>
<!-- 3 -->
<g id="node4" class="node"><title>3</title>
<path fill="none" stroke="black" d="M1496,-252C1496,-252 1308,-252 1308,-252 1302,-252 1296,-246 1296,-240 1296,-240 1296,-228 1296,-228 1296,-222 1302,-216 1308,-216 1308,-216 1496,-216 1496,-216 1502,-216 1508,-222 1508,-228 1508,-228 1508,-240 1508,-240 1508,-246 1502,-252 1496,-252"/>
<text text-anchor="middle" x="1402" y="-230.3" font-family="Times,serif" font-size="14.00">serverlib.ServerWebSocket</text>
</g>
<!-- 3&#45;&gt;9 -->
<g id="edge6" class="edge"><title>3&#45;&gt;9</title>
<path fill="none" stroke="black" d="M1364.57,-252.124C1343.75,-261.651 1317.65,-273.593 1295.52,-283.717"/>
<polygon fill="black" stroke="black" points="1286.31,-287.932 1293.53,-279.679 1290.85,-285.851 1295.4,-283.771 1295.4,-283.771 1295.4,-283.771 1290.85,-285.851 1297.27,-287.863 1286.31,-287.932 1286.31,-287.932"/>
</g>
<!-- 4 -->
<g id="node5" class="node"><title>4</title>
<path fill="none" stroke="black" d="M2149.5,-108C2149.5,-108 2028.5,-108 2028.5,-108 2022.5,-108 2016.5,-102 2016.5,-96 2016.5,-96 2016.5,-84 2016.5,-84 2016.5,-78 2022.5,-72 2028.5,-72 2028.5,-72 2149.5,-72 2149.5,-72 2155.5,-72 2161.5,-78 2161.5,-84 2161.5,-84 2161.5,-96 2161.5,-96 2161.5,-102 2155.5,-108 2149.5,-108"/>
<text text-anchor="middle" x="2089" y="-86.3" font-family="Times,serif" font-size="14.00">serverlib.SubProc</text>
</g>
<!-- 5 -->
<g id="node6" class="node"><title>5</title>
<path fill="none" stroke="black" d="M1700,-108C1700,-108 1576,-108 1576,-108 1570,-108 1564,-102 1564,-96 1564,-96 1564,-84 1564,-84 1564,-78 1570,-72 1576,-72 1576,-72 1700,-72 1700,-72 1706,-72 1712,-78 1712,-84 1712,-84 1712,-96 1712,-96 1712,-102 1706,-108 1700,-108"/>
<text text-anchor="middle" x="1638" y="-86.3" font-family="Times,serif" font-size="14.00">serverlib.TLSAscii</text>
</g>
<!-- 6 -->
<g id="node7" class="node"><title>6</title>
<path fill="none" stroke="black" d="M1495.5,-180C1495.5,-180 1346.5,-180 1346.5,-180 1340.5,-180 1334.5,-174 1334.5,-168 1334.5,-168 1334.5,-156 1334.5,-156 1334.5,-150 1340.5,-144 1346.5,-144 1346.5,-144 1495.5,-144 1495.5,-144 1501.5,-144 1507.5,-150 1507.5,-156 1507.5,-156 1507.5,-168 1507.5,-168 1507.5,-174 1501.5,-180 1495.5,-180"/>
<text text-anchor="middle" x="1421" y="-158.3" font-family="Times,serif" font-size="14.00">serverlib.Taskmeister</text>
</g>
<!-- 5&#45;&gt;6 -->
<g id="edge7" class="edge"><title>5&#45;&gt;6</title>
<path fill="none" stroke="black" d="M1585.19,-108.034C1554.61,-117.9 1515.93,-130.378 1483.79,-140.745"/>
<polygon fill="black" stroke="black" points="1474.04,-143.889 1482.18,-136.536 1478.8,-142.354 1483.56,-140.819 1483.56,-140.819 1483.56,-140.819 1478.8,-142.354 1484.94,-145.102 1474.04,-143.889 1474.04,-143.889"/>
</g>
<!-- 8 -->
<g id="node9" class="node"><title>8</title>
<path fill="none" stroke="black" d="M1809.5,-180C1809.5,-180 1678.5,-180 1678.5,-180 1672.5,-180 1666.5,-174 1666.5,-168 1666.5,-168 1666.5,-156 1666.5,-156 1666.5,-150 1672.5,-144 1678.5,-144 1678.5,-144 1809.5,-144 1809.5,-144 1815.5,-144 1821.5,-150 1821.5,-156 1821.5,-156 1821.5,-168 1821.5,-168 1821.5,-174 1815.5,-180 1809.5,-180"/>
<text text-anchor="middle" x="1744" y="-158.3" font-family="Times,serif" font-size="14.00">serverlib.commlink</text>
</g>
<!-- 5&#45;&gt;8 -->
<g id="edge8" class="edge"><title>5&#45;&gt;8</title>
<path fill="none" stroke="black" d="M1663.93,-108.124C1677.66,-117.192 1694.71,-128.448 1709.54,-138.241"/>
<polygon fill="black" stroke="black" points="1717.97,-143.81 1707.15,-142.055 1713.8,-141.055 1709.63,-138.3 1709.63,-138.3 1709.63,-138.3 1713.8,-141.055 1712.1,-134.544 1717.97,-143.81 1717.97,-143.81"/>
</g>
<!-- 6&#45;&gt;3 -->
<g id="edge9" class="edge"><title>6&#45;&gt;3</title>
<path fill="none" stroke="black" d="M1416.3,-180.303C1414.19,-188.102 1411.64,-197.491 1409.28,-206.171"/>
<polygon fill="black" stroke="black" points="1406.64,-215.896 1404.92,-205.066 1407.95,-211.07 1409.26,-206.245 1409.26,-206.245 1409.26,-206.245 1407.95,-211.07 1413.61,-207.424 1406.64,-215.896 1406.64,-215.896"/>
</g>
<!-- 7 -->
<g id="node8" class="node"><title>7</title>
<path fill="none" stroke="black" d="M2151.5,-36C2151.5,-36 2026.5,-36 2026.5,-36 2020.5,-36 2014.5,-30 2014.5,-24 2014.5,-24 2014.5,-12 2014.5,-12 2014.5,-6 2020.5,-0 2026.5,-0 2026.5,-0 2151.5,-0 2151.5,-0 2157.5,-0 2163.5,-6 2163.5,-12 2163.5,-12 2163.5,-24 2163.5,-24 2163.5,-30 2157.5,-36 2151.5,-36"/>
<text text-anchor="middle" x="2089" y="-14.3" font-family="Times,serif" font-size="14.00">serverlib.USBProc</text>
</g>
<!-- 7&#45;&gt;4 -->
<g id="edge10" class="edge"><title>7&#45;&gt;4</title>
<path fill="none" stroke="black" d="M2089,-36.3034C2089,-44.0173 2089,-53.2875 2089,-61.8876"/>
<polygon fill="black" stroke="black" points="2089,-71.8957 2084.5,-61.8956 2089,-66.8957 2089,-61.8957 2089,-61.8957 2089,-61.8957 2089,-66.8957 2093.5,-61.8957 2089,-71.8957 2089,-71.8957"/>
</g>
<!-- 8&#45;&gt;9 -->
<g id="edge11" class="edge"><title>8&#45;&gt;9</title>
<path fill="none" stroke="black" d="M1666.18,-175.929C1630.69,-184.008 1589.09,-196.667 1555,-216 1534.76,-227.477 1537.67,-241.323 1517,-252 1461.97,-280.425 1393.35,-293.641 1339.32,-299.769"/>
<polygon fill="black" stroke="black" points="1329.07,-300.867 1338.53,-295.328 1334.04,-300.335 1339.01,-299.802 1339.01,-299.802 1339.01,-299.802 1334.04,-300.335 1339.49,-304.277 1329.07,-300.867 1329.07,-300.867"/>
</g>
<!-- 10&#45;&gt;26 -->
<g id="edge12" class="edge"><title>10&#45;&gt;26</title>
<path fill="none" stroke="black" d="M501.132,-252.124C516.168,-261.276 534.867,-272.658 551.06,-282.515"/>
<polygon fill="black" stroke="black" points="559.76,-287.81 548.878,-286.455 555.489,-285.21 551.218,-282.611 551.218,-282.611 551.218,-282.611 555.489,-285.21 553.557,-278.767 559.76,-287.81 559.76,-287.81"/>
</g>
<!-- 11 -->
<g id="node12" class="node"><title>11</title>
<path fill="none" stroke="black" d="M1273,-36C1273,-36 1119,-36 1119,-36 1113,-36 1107,-30 1107,-24 1107,-24 1107,-12 1107,-12 1107,-6 1113,-0 1119,-0 1119,-0 1273,-0 1273,-0 1279,-0 1285,-6 1285,-12 1285,-12 1285,-24 1285,-24 1285,-30 1279,-36 1273,-36"/>
<text text-anchor="middle" x="1196" y="-14.3" font-family="Times,serif" font-size="14.00">serverlib.stockyserver</text>
</g>
<!-- 11&#45;&gt;1 -->
<g id="edge13" class="edge"><title>11&#45;&gt;1</title>
<path fill="none" stroke="black" d="M1106.83,-34.6714C1103.86,-35.1298 1100.9,-35.5741 1098,-36 965.131,-55.4829 927.887,-37.895 798,-72 736.129,-88.2458 668.574,-118.637 626.255,-139.339"/>
<polygon fill="black" stroke="black" points="617.1,-143.86 624.074,-135.397 621.583,-141.646 626.066,-139.432 626.066,-139.432 626.066,-139.432 621.583,-141.646 628.059,-143.467 617.1,-143.86 617.1,-143.86"/>
</g>
<!-- 11&#45;&gt;3 -->
<g id="edge14" class="edge"><title>11&#45;&gt;3</title>
<path fill="none" stroke="black" d="M1285.07,-24.3707C1362.08,-30.8251 1465.66,-44.4413 1496,-72 1532.14,-104.821 1542.25,-138.844 1516,-180 1507.25,-193.715 1493.93,-203.936 1479.45,-211.535"/>
<polygon fill="black" stroke="black" points="1470.31,-215.936 1477.37,-207.543 1474.82,-213.767 1479.32,-211.598 1479.32,-211.598 1479.32,-211.598 1474.82,-213.767 1481.27,-215.652 1470.31,-215.936 1470.31,-215.936"/>
</g>
<!-- 11&#45;&gt;5 -->
<g id="edge15" class="edge"><title>11&#45;&gt;5</title>
<path fill="none" stroke="black" d="M1285.28,-31.3028C1356.96,-41.4366 1460.11,-56.5963 1550,-72 1551.11,-72.1905 1552.23,-72.3839 1553.36,-72.5799"/>
<polygon fill="black" stroke="black" points="1563.62,-74.4029 1552.99,-77.085 1558.7,-73.5286 1553.78,-72.6544 1553.78,-72.6544 1553.78,-72.6544 1558.7,-73.5286 1554.56,-68.2237 1563.62,-74.4029 1563.62,-74.4029"/>
</g>
<!-- 11&#45;&gt;6 -->
<g id="edge16" class="edge"><title>11&#45;&gt;6</title>
<path fill="none" stroke="black" d="M1285.12,-23.6489C1358.32,-29.5535 1453.75,-42.7655 1478,-72 1495.11,-92.6269 1474.14,-118.689 1452.97,-137.269"/>
<polygon fill="black" stroke="black" points="1445.24,-143.752 1450.01,-133.88 1449.07,-140.541 1452.9,-137.329 1452.9,-137.329 1452.9,-137.329 1449.07,-140.541 1455.79,-140.778 1445.24,-143.752 1445.24,-143.752"/>
</g>
<!-- 11&#45;&gt;9 -->
<g id="edge17" class="edge"><title>11&#45;&gt;9</title>
<path fill="none" stroke="black" d="M1199.16,-36.0341C1208.01,-83.8082 1233.13,-219.377 1243.95,-277.734"/>
<polygon fill="black" stroke="black" points="1245.79,-287.694 1239.55,-278.681 1244.88,-282.777 1243.97,-277.861 1243.97,-277.861 1243.97,-277.861 1244.88,-282.777 1248.4,-277.041 1245.79,-287.694 1245.79,-287.694"/>
</g>
<!-- 11&#45;&gt;10 -->
<g id="edge18" class="edge"><title>11&#45;&gt;10</title>
<path fill="none" stroke="black" d="M1106.85,-34.7884C1103.87,-35.2133 1100.91,-35.6188 1098,-36 918.82,-59.4634 869.529,-33.3531 693,-72 599.895,-92.3832 553.413,-71.968 491,-144 476.367,-160.888 472.42,-186.361 471.812,-205.734"/>
<polygon fill="black" stroke="black" points="471.771,-215.776 467.312,-205.757 471.791,-210.776 471.812,-205.776 471.812,-205.776 471.812,-205.776 471.791,-210.776 476.312,-205.794 471.771,-215.776 471.771,-215.776"/>
</g>
<!-- 11&#45;&gt;25 -->
<g id="edge19" class="edge"><title>11&#45;&gt;25</title>
<path fill="none" stroke="black" d="M1106.86,-34.8854C1103.88,-35.2826 1100.92,-35.6559 1098,-36 976.058,-50.3911 0,-38.212 0,-161 0,-161 0,-161 0,-235 0,-290.627 38.182,-299.252 88,-324 143.314,-351.479 311.671,-366.188 412.114,-372.723"/>
<polygon fill="black" stroke="black" points="422.215,-373.368 411.949,-377.222 417.226,-373.05 412.236,-372.731 412.236,-372.731 412.236,-372.731 417.226,-373.05 412.522,-368.24 422.215,-373.368 422.215,-373.368"/>
</g>
<!-- 12 -->
<g id="node13" class="node"><title>12</title>
<path fill="none" stroke="black" d="M2289,-36C2289,-36 2193,-36 2193,-36 2187,-36 2181,-30 2181,-24 2181,-24 2181,-12 2181,-12 2181,-6 2187,-0 2193,-0 2193,-0 2289,-0 2289,-0 2295,-0 2301,-6 2301,-12 2301,-12 2301,-24 2301,-24 2301,-30 2295,-36 2289,-36"/>
<text text-anchor="middle" x="2241" y="-14.3" font-family="Times,serif" font-size="14.00">serverlib.tests</text>
</g>
<!-- 13 -->
<g id="node14" class="node"><title>13</title>
<path fill="none" stroke="black" d="M2490.5,-36C2490.5,-36 2331.5,-36 2331.5,-36 2325.5,-36 2319.5,-30 2319.5,-24 2319.5,-24 2319.5,-12 2319.5,-12 2319.5,-6 2325.5,-0 2331.5,-0 2331.5,-0 2490.5,-0 2490.5,-0 2496.5,-0 2502.5,-6 2502.5,-12 2502.5,-12 2502.5,-24 2502.5,-24 2502.5,-30 2496.5,-36 2490.5,-36"/>
<text text-anchor="middle" x="2411" y="-14.3" font-family="Times,serif" font-size="14.00">serverlib.tests.conftest</text>
</g>
<!-- 14 -->
<g id="node15" class="node"><title>14</title>
<path fill="none" stroke="black" d="M356,-252C356,-252 116,-252 116,-252 110,-252 104,-246 104,-240 104,-240 104,-228 104,-228 104,-222 110,-216 116,-216 116,-216 356,-216 356,-216 362,-216 368,-222 368,-228 368,-228 368,-240 368,-240 368,-246 362,-252 356,-252"/>
<text text-anchor="middle" x="236" y="-230.3" font-family="Times,serif" font-size="14.00">serverlib.tests.removetest_QAILib</text>
</g>
<!-- 14&#45;&gt;26 -->
<g id="edge20" class="edge"><title>14&#45;&gt;26</title>
<path fill="none" stroke="black" d="M324.855,-252.059C375.305,-261.82 439.886,-274.441 506.6,-287.933"/>
<polygon fill="black" stroke="black" points="516.457,-289.929 505.763,-292.354 511.557,-288.937 506.656,-287.944 506.656,-287.944 506.656,-287.944 511.557,-288.937 507.55,-283.534 516.457,-289.929 516.457,-289.929"/>
</g>
<!-- 15 -->
<g id="node16" class="node"><title>15</title>
<path fill="none" stroke="black" d="M1037,-108C1037,-108 819,-108 819,-108 813,-108 807,-102 807,-96 807,-96 807,-84 807,-84 807,-78 813,-72 819,-72 819,-72 1037,-72 1037,-72 1043,-72 1049,-78 1049,-84 1049,-84 1049,-96 1049,-96 1049,-102 1043,-108 1037,-108"/>
<text text-anchor="middle" x="928" y="-86.3" font-family="Times,serif" font-size="14.00">serverlib.tests.test_ChemStock</text>
</g>
<!-- 15&#45;&gt;1 -->
<g id="edge21" class="edge"><title>15&#45;&gt;1</title>
<path fill="none" stroke="black" d="M844.288,-108.034C793.936,-118.28 729.734,-131.345 677.692,-141.935"/>
<polygon fill="black" stroke="black" points="667.789,-143.95 676.691,-137.546 672.688,-142.953 677.588,-141.956 677.588,-141.956 677.588,-141.956 672.688,-142.953 678.485,-146.365 667.789,-143.95 667.789,-143.95"/>
</g>
<!-- 15&#45;&gt;9 -->
<g id="edge22" class="edge"><title>15&#45;&gt;9</title>
<path fill="none" stroke="black" d="M973.297,-108.024C1024.69,-128.681 1109.48,-166.921 1172,-216 1195.28,-234.27 1216.86,-260.351 1231.22,-279.559"/>
<polygon fill="black" stroke="black" points="1237.28,-287.848 1227.75,-282.437 1234.33,-283.813 1231.38,-279.779 1231.38,-279.779 1231.38,-279.779 1234.33,-283.813 1235.01,-277.121 1237.28,-287.848 1237.28,-287.848"/>
</g>
<!-- 20 -->
<g id="node21" class="node"><title>20</title>
<path fill="none" stroke="black" d="M1151.5,-252C1151.5,-252 940.5,-252 940.5,-252 934.5,-252 928.5,-246 928.5,-240 928.5,-240 928.5,-228 928.5,-228 928.5,-222 934.5,-216 940.5,-216 940.5,-216 1151.5,-216 1151.5,-216 1157.5,-216 1163.5,-222 1163.5,-228 1163.5,-228 1163.5,-240 1163.5,-240 1163.5,-246 1157.5,-252 1151.5,-252"/>
<text text-anchor="middle" x="1046" y="-230.3" font-family="Times,serif" font-size="14.00">serverlib.tests.test_qai_helper</text>
</g>
<!-- 15&#45;&gt;20 -->
<g id="edge23" class="edge"><title>15&#45;&gt;20</title>
<path fill="none" stroke="black" d="M942.234,-108.129C962.876,-132.969 1001.25,-179.154 1025.11,-207.858"/>
<polygon fill="black" stroke="black" points="1031.72,-215.811 1021.86,-210.996 1028.52,-211.965 1025.32,-208.12 1025.32,-208.12 1025.32,-208.12 1028.52,-211.965 1028.79,-205.244 1031.72,-215.811 1031.72,-215.811"/>
</g>
<!-- 15&#45;&gt;26 -->
<g id="edge24" class="edge"><title>15&#45;&gt;26</title>
<path fill="none" stroke="black" d="M862.492,-108.004C800.963,-126.544 709.03,-161.126 645,-216 624.977,-233.16 609.471,-259.103 599.721,-278.559"/>
<polygon fill="black" stroke="black" points="595.278,-287.791 595.56,-276.829 597.446,-283.286 599.615,-278.78 599.615,-278.78 599.615,-278.78 597.446,-283.286 603.669,-280.732 595.278,-287.791 595.278,-287.791"/>
</g>
<!-- 16 -->
<g id="node17" class="node"><title>16</title>
<path fill="none" stroke="black" d="M1816,-252C1816,-252 1576,-252 1576,-252 1570,-252 1564,-246 1564,-240 1564,-240 1564,-228 1564,-228 1564,-222 1570,-216 1576,-216 1576,-216 1816,-216 1816,-216 1822,-216 1828,-222 1828,-228 1828,-228 1828,-240 1828,-240 1828,-246 1822,-252 1816,-252"/>
<text text-anchor="middle" x="1696" y="-230.3" font-family="Times,serif" font-size="14.00">serverlib.tests.test_LocChangeLib</text>
</g>
<!-- 16&#45;&gt;2 -->
<g id="edge25" class="edge"><title>16&#45;&gt;2</title>
<path fill="none" stroke="black" d="M1667.13,-252.124C1651.71,-261.276 1632.52,-272.658 1615.9,-282.515"/>
<polygon fill="black" stroke="black" points="1606.98,-287.81 1613.28,-278.838 1611.28,-285.259 1615.58,-282.708 1615.58,-282.708 1615.58,-282.708 1611.28,-285.259 1617.87,-286.578 1606.98,-287.81 1606.98,-287.81"/>
</g>
<!-- 16&#45;&gt;9 -->
<g id="edge26" class="edge"><title>16&#45;&gt;9</title>
<path fill="none" stroke="black" d="M1587.22,-252.034C1511.08,-263.958 1410.57,-279.699 1338.94,-290.915"/>
<polygon fill="black" stroke="black" points="1329.04,-292.466 1338.22,-286.473 1333.98,-291.693 1338.92,-290.919 1338.92,-290.919 1338.92,-290.919 1333.98,-291.693 1339.61,-295.365 1329.04,-292.466 1329.04,-292.466"/>
</g>
<!-- 17 -->
<g id="node18" class="node"><title>17</title>
<path fill="none" stroke="black" d="M1944.5,-36C1944.5,-36 1745.5,-36 1745.5,-36 1739.5,-36 1733.5,-30 1733.5,-24 1733.5,-24 1733.5,-12 1733.5,-12 1733.5,-6 1739.5,-0 1745.5,-0 1745.5,-0 1944.5,-0 1944.5,-0 1950.5,-0 1956.5,-6 1956.5,-12 1956.5,-12 1956.5,-24 1956.5,-24 1956.5,-30 1950.5,-36 1944.5,-36"/>
<text text-anchor="middle" x="1845" y="-14.3" font-family="Times,serif" font-size="14.00">serverlib.tests.test_TLSAscii</text>
</g>
<!-- 17&#45;&gt;5 -->
<g id="edge27" class="edge"><title>17&#45;&gt;5</title>
<path fill="none" stroke="black" d="M1794.63,-36.0344C1765.58,-45.8575 1728.87,-58.2709 1698.29,-68.6109"/>
<polygon fill="black" stroke="black" points="1688.6,-71.8892 1696.63,-64.4228 1693.34,-70.2874 1698.07,-68.6857 1698.07,-68.6857 1698.07,-68.6857 1693.34,-70.2874 1699.51,-72.9486 1688.6,-71.8892 1688.6,-71.8892"/>
</g>
<!-- 17&#45;&gt;8 -->
<g id="edge28" class="edge"><title>17&#45;&gt;8</title>
<path fill="none" stroke="black" d="M1922.39,-36.1206C1940.68,-43.9698 1958.04,-55.392 1969,-72 1977.81,-85.3532 1978.93,-95.4562 1969,-108 1951.76,-129.77 1887.41,-143.491 1831.92,-151.504"/>
<polygon fill="black" stroke="black" points="1821.68,-152.934 1830.96,-147.094 1826.63,-152.243 1831.58,-151.551 1831.58,-151.551 1831.58,-151.551 1826.63,-152.243 1832.2,-156.008 1821.68,-152.934 1821.68,-152.934"/>
</g>
<!-- 18 -->
<g id="node19" class="node"><title>18</title>
<path fill="none" stroke="black" d="M1948,-108C1948,-108 1742,-108 1742,-108 1736,-108 1730,-102 1730,-96 1730,-96 1730,-84 1730,-84 1730,-78 1736,-72 1742,-72 1742,-72 1948,-72 1948,-72 1954,-72 1960,-78 1960,-84 1960,-84 1960,-96 1960,-96 1960,-102 1954,-108 1948,-108"/>
<text text-anchor="middle" x="1845" y="-86.3" font-family="Times,serif" font-size="14.00">serverlib.tests.test_commlink</text>
</g>
<!-- 17&#45;&gt;18 -->
<g id="edge29" class="edge"><title>17&#45;&gt;18</title>
<path fill="none" stroke="black" d="M1845,-36.3034C1845,-44.0173 1845,-53.2875 1845,-61.8876"/>
<polygon fill="black" stroke="black" points="1845,-71.8957 1840.5,-61.8956 1845,-66.8957 1845,-61.8957 1845,-61.8957 1845,-61.8957 1845,-66.8957 1849.5,-61.8957 1845,-71.8957 1845,-71.8957"/>
</g>
<!-- 18&#45;&gt;8 -->
<g id="edge30" class="edge"><title>18&#45;&gt;8</title>
<path fill="none" stroke="black" d="M1820.29,-108.124C1807.33,-117.107 1791.27,-128.237 1777.23,-137.966"/>
<polygon fill="black" stroke="black" points="1768.8,-143.81 1774.46,-134.415 1772.91,-140.962 1777.02,-138.114 1777.02,-138.114 1777.02,-138.114 1772.91,-140.962 1779.58,-141.812 1768.8,-143.81 1768.8,-143.81"/>
</g>
<!-- 19 -->
<g id="node20" class="node"><title>19</title>
<path fill="none" stroke="black" d="M2759.5,-36C2759.5,-36 2532.5,-36 2532.5,-36 2526.5,-36 2520.5,-30 2520.5,-24 2520.5,-24 2520.5,-12 2520.5,-12 2520.5,-6 2526.5,-0 2532.5,-0 2532.5,-0 2759.5,-0 2759.5,-0 2765.5,-0 2771.5,-6 2771.5,-12 2771.5,-12 2771.5,-24 2771.5,-24 2771.5,-30 2765.5,-36 2759.5,-36"/>
<text text-anchor="middle" x="2646" y="-14.3" font-family="Times,serif" font-size="14.00">serverlib.tests.test_commonmsg</text>
</g>
<!-- 20&#45;&gt;9 -->
<g id="edge31" class="edge"><title>20&#45;&gt;9</title>
<path fill="none" stroke="black" d="M1095.4,-252.034C1123.89,-261.858 1159.89,-274.271 1189.87,-284.611"/>
<polygon fill="black" stroke="black" points="1199.38,-287.889 1188.46,-288.883 1194.65,-286.259 1189.92,-284.629 1189.92,-284.629 1189.92,-284.629 1194.65,-286.259 1191.39,-280.375 1199.38,-287.889 1199.38,-287.889"/>
</g>
<!-- 20&#45;&gt;26 -->
<g id="edge32" class="edge"><title>20&#45;&gt;26</title>
<path fill="none" stroke="black" d="M934.546,-252.034C852.863,-264.519 743.805,-281.187 670.013,-292.465"/>
<polygon fill="black" stroke="black" points="659.841,-294.02 669.046,-288.061 664.783,-293.265 669.726,-292.509 669.726,-292.509 669.726,-292.509 664.783,-293.265 670.406,-296.957 659.841,-294.02 659.841,-294.02"/>
</g>
<!-- 21 -->
<g id="node22" class="node"><title>21</title>
<path fill="none" stroke="black" d="M349.5,-180C349.5,-180 124.5,-180 124.5,-180 118.5,-180 112.5,-174 112.5,-168 112.5,-168 112.5,-156 112.5,-156 112.5,-150 118.5,-144 124.5,-144 124.5,-144 349.5,-144 349.5,-144 355.5,-144 361.5,-150 361.5,-156 361.5,-156 361.5,-168 361.5,-168 361.5,-174 355.5,-180 349.5,-180"/>
<text text-anchor="middle" x="237" y="-158.3" font-family="Times,serif" font-size="14.00">serverlib.tests.test_serverconfig</text>
</g>
<!-- 21&#45;&gt;10 -->
<g id="edge33" class="edge"><title>21&#45;&gt;10</title>
<path fill="none" stroke="black" d="M294.43,-180.034C327.978,-189.985 370.488,-202.594 405.614,-213.013"/>
<polygon fill="black" stroke="black" points="415.312,-215.889 404.445,-217.36 410.519,-214.467 405.725,-213.045 405.725,-213.045 405.725,-213.045 410.519,-214.467 407.005,-208.731 415.312,-215.889 415.312,-215.889"/>
</g>
<!-- 21&#45;&gt;26 -->
<g id="edge34" class="edge"><title>21&#45;&gt;26</title>
<path fill="none" stroke="black" d="M167.469,-180.051C118.266,-195.301 65.8089,-220.147 95,-252 124.47,-284.157 428.255,-281.637 505.685,-288.289"/>
<polygon fill="black" stroke="black" points="516.092,-289.442 505.657,-292.813 511.122,-288.891 506.152,-288.341 506.152,-288.341 506.152,-288.341 511.122,-288.891 506.648,-283.868 516.092,-289.442 516.092,-289.442"/>
</g>
<!-- 22 -->
<g id="node23" class="node"><title>22</title>
<path fill="none" stroke="black" d="M1457.5,-108C1457.5,-108 1236.5,-108 1236.5,-108 1230.5,-108 1224.5,-102 1224.5,-96 1224.5,-96 1224.5,-84 1224.5,-84 1224.5,-78 1230.5,-72 1236.5,-72 1236.5,-72 1457.5,-72 1457.5,-72 1463.5,-72 1469.5,-78 1469.5,-84 1469.5,-84 1469.5,-96 1469.5,-96 1469.5,-102 1463.5,-108 1457.5,-108"/>
<text text-anchor="middle" x="1347" y="-86.3" font-family="Times,serif" font-size="14.00">serverlib.tests.test_taskmeister</text>
</g>
<!-- 22&#45;&gt;3 -->
<g id="edge35" class="edge"><title>22&#45;&gt;3</title>
<path fill="none" stroke="black" d="M1335.81,-108.269C1325.3,-126.868 1312.85,-156.895 1325,-180 1331.56,-192.484 1342.54,-202.6 1354.19,-210.517"/>
<polygon fill="black" stroke="black" points="1362.73,-215.895 1351.87,-214.374 1358.5,-213.231 1354.27,-210.567 1354.27,-210.567 1354.27,-210.567 1358.5,-213.231 1356.66,-206.759 1362.73,-215.895 1362.73,-215.895"/>
</g>
<!-- 22&#45;&gt;6 -->
<g id="edge36" class="edge"><title>22&#45;&gt;6</title>
<path fill="none" stroke="black" d="M1365.29,-108.303C1374.43,-116.95 1385.64,-127.551 1395.6,-136.973"/>
<polygon fill="black" stroke="black" points="1402.92,-143.896 1392.56,-140.293 1399.29,-140.46 1395.65,-137.024 1395.65,-137.024 1395.65,-137.024 1399.29,-140.46 1398.75,-133.755 1402.92,-143.896 1402.92,-143.896"/>
</g>
<!-- 22&#45;&gt;9 -->
<g id="edge37" class="edge"><title>22&#45;&gt;9</title>
<path fill="none" stroke="black" d="M1336.06,-108.339C1329.83,-118.535 1322.08,-131.785 1316,-144 1293.12,-189.979 1271.14,-245.719 1258.92,-278.093"/>
<polygon fill="black" stroke="black" points="1255.3,-287.742 1254.6,-276.798 1257.06,-283.059 1258.81,-278.377 1258.81,-278.377 1258.81,-278.377 1257.06,-283.059 1263.02,-279.956 1255.3,-287.742 1255.3,-287.742"/>
</g>
<!-- 23 -->
<g id="node24" class="node"><title>23</title>
<path fill="none" stroke="black" d="M486,-324C486,-324 300,-324 300,-324 294,-324 288,-318 288,-312 288,-312 288,-300 288,-300 288,-294 294,-288 300,-288 300,-288 486,-288 486,-288 492,-288 498,-294 498,-300 498,-300 498,-312 498,-312 498,-318 492,-324 486,-324"/>
<text text-anchor="middle" x="393" y="-302.3" font-family="Times,serif" font-size="14.00">serverlib.tests.test_timelib</text>
</g>
<!-- 23&#45;&gt;25 -->
<g id="edge38" class="edge"><title>23&#45;&gt;25</title>
<path fill="none" stroke="black" d="M416.978,-324.303C429.311,-333.204 444.516,-344.177 457.853,-353.801"/>
<polygon fill="black" stroke="black" points="466.298,-359.896 455.556,-357.693 462.244,-356.97 458.189,-354.044 458.189,-354.044 458.189,-354.044 462.244,-356.97 460.823,-350.395 466.298,-359.896 466.298,-359.896"/>
</g>
<!-- 24 -->
<g id="node25" class="node"><title>24</title>
<path fill="none" stroke="black" d="M860,-252C860,-252 666,-252 666,-252 660,-252 654,-246 654,-240 654,-240 654,-228 654,-228 654,-222 660,-216 666,-216 666,-216 860,-216 860,-216 866,-216 872,-222 872,-228 872,-228 872,-240 872,-240 872,-246 866,-252 860,-252"/>
<text text-anchor="middle" x="763" y="-230.3" font-family="Times,serif" font-size="14.00">serverlib.tests.test_yamlutil</text>
</g>
<!-- 24&#45;&gt;25 -->
<g id="edge39" class="edge"><title>24&#45;&gt;25</title>
<path fill="none" stroke="black" d="M749.019,-252.262C731.916,-272.289 701.125,-304.986 668,-324 637.209,-341.675 599.976,-353.95 567.538,-362.201"/>
<polygon fill="black" stroke="black" points="557.638,-364.634 566.275,-357.877 562.493,-363.441 567.349,-362.247 567.349,-362.247 567.349,-362.247 562.493,-363.441 568.423,-366.617 557.638,-364.634 557.638,-364.634"/>
</g>
<!-- 24&#45;&gt;26 -->
<g id="edge40" class="edge"><title>24&#45;&gt;26</title>
<path fill="none" stroke="black" d="M720.19,-252.124C696.054,-261.778 665.716,-273.913 640.194,-284.122"/>
<polygon fill="black" stroke="black" points="630.671,-287.932 638.284,-280.04 635.313,-286.075 639.956,-284.218 639.956,-284.218 639.956,-284.218 635.313,-286.075 641.627,-288.396 630.671,-287.932 630.671,-287.932"/>
</g>
<!-- 26&#45;&gt;25 -->
<g id="edge41" class="edge"><title>26&#45;&gt;25</title>
<path fill="none" stroke="black" d="M564.027,-324.124C551.45,-333.107 535.868,-344.237 522.248,-353.966"/>
<polygon fill="black" stroke="black" points="514.066,-359.81 519.587,-350.336 518.134,-356.904 522.203,-353.998 522.203,-353.998 522.203,-353.998 518.134,-356.904 524.819,-357.66 514.066,-359.81 514.066,-359.81"/>
</g>
</g>
</svg>
